<svg xmlns="http://www.w3.org/2000/svg" xmlns:xlink="http://www.w3.org/1999/xlink" style="display: none;">
  <!--
    Project: موقع فيسبوك html (Facebook Clone - Arabic)
    Description: Production-ready Icon Sprite System
    Standard: Industrial-grade SVG paths optimized for 24x24 grid.
  -->

  <!-- Home Icon -->
  <symbol id="icon-home" viewBox="0 0 24 24" fill="none" stroke="currentColor" stroke-width="2" stroke-linecap="round" stroke-linejoin="round">
    <path d="M3 9l9-7 9 7v11a2 2 0 0 1-2 2H5a2 2 0 0 1-2-2z"></path>
    <polyline points="9 22 9 12 15 12 15 22"></polyline>
  </symbol>

  <!-- Friends Icon -->
  <symbol id="icon-friends" viewBox="0 0 24 24" fill="none" stroke="currentColor" stroke-width="2" stroke-linecap="round" stroke-linejoin="round">
    <path d="M17 21v-2a4 4 0 0 0-4-4H5a4 4 0 0 0-4 4v2"></path>
    <circle cx="9" cy="7" r="4"></circle>
    <path d="M23 21v-2a4 4 0 0 0-3-3.87"></path>
    <path d="M16 3.13a4 4 0 0 1 0 7.75"></path>
  </symbol>

  <!-- Marketplace Icon -->
  <symbol id="icon-market" viewBox="0 0 24 24" fill="none" stroke="currentColor" stroke-width="2" stroke-linecap="round" stroke-linejoin="round">
    <path d="M3 9l9-7 9 7v11a2 2 0 0 1-2 2H5a2 2 0 0 1-2-2z"></path>
    <polyline points="9 22 9 12 15 12 15 22"></polyline>
    <path d="M2 9h20"></path>
    <path d="M6 13h4v4H6z"></path>
    <path d="M14 13h4v4h-4z"></path>
  </symbol>

  <!-- Groups Icon -->
  <symbol id="icon-groups" viewBox="0 0 24 24" fill="none" stroke="currentColor" stroke-width="2" stroke-linecap="round" stroke-linejoin="round">
    <path d="M12 10c2.21 0 4-1.79 4-4s-1.79-4-4-4-4 1.79-4 4 1.79 4 4 4z"></path>
    <path d="M17 21v-2a4 4 0 0 0-4-4H11a4 4 0 0 0-4 4v2"></path>
    <path d="M4 14.5c0-1.93 1.57-3.5 3.5-3.5"></path>
    <path d="M20 14.5c0-1.93-1.57-3.5-3.5-3.5"></path>
    <circle cx="4" cy="9" r="2.5"></circle>
    <circle cx="20" cy="9" r="2.5"></circle>
  </symbol>

  <!-- Watch/Video Icon -->
  <symbol id="icon-watch" viewBox="0 0 24 24" fill="none" stroke="currentColor" stroke-width="2" stroke-linecap="round" stroke-linejoin="round">
    <rect x="2" y="3" width="20" height="14" rx="2" ry="2"></rect>
    <line x1="8" y1="21" x2="16" y2="21"></line>
    <line x1="12" y1="17" x2="12" y2="21"></line>
    <polygon points="10 8 15 10 10 12 10 8"></polygon>
  </symbol>

  <!-- Messenger Icon -->
  <symbol id="icon-messenger" viewBox="0 0 24 24" fill="none" stroke="currentColor" stroke-width="2" stroke-linecap="round" stroke-linejoin="round">
    <path d="M21 11.5a8.38 8.38 0 0 1-.9 3.8 8.5 8.5 0 1 1-7.6-11.4 8.5 8.5 0 0 1 8.5 7.6z"></path>
    <path d="M14 9l-4 4 3 1.5-1 3.5 4-4-3-1.5 1-3.5z" fill="currentColor"></path>
  </symbol>

  <!-- Notifications Bell -->
  <symbol id="icon-bell" viewBox="0 0 24 24" fill="none" stroke="currentColor" stroke-width="2" stroke-linecap="round" stroke-linejoin="round">
    <path d="M18 8a6 6 0 0 0-12 0c0 7-3 9-3 9h18s-3-2-3-9"></path>
    <path d="M13.73 21a2 2 0 0 1-3.46 0"></path>
  </symbol>

  <!-- Menu Icon -->
  <symbol id="icon-menu" viewBox="0 0 24 24" fill="none" stroke="currentColor" stroke-width="2" stroke-linecap="round" stroke-linejoin="round">
    <line x1="3" y1="12" x2="21" y2="12"></line>
    <line x1="3" y1="6" x2="21" y2="6"></line>
    <line x1="3" y1="18" x2="21" y2="18"></line>
  </symbol>

  <!-- Search Icon -->
  <symbol id="icon-search" viewBox="0 0 24 24" fill="none" stroke="currentColor" stroke-width="2" stroke-linecap="round" stroke-linejoin="round">
    <circle cx="11" cy="11" r="8"></circle>
    <line x1="21" y1="21" x2="16.65" y2="16.65"></line>
  </symbol>

  <!-- Like Icon (Outline) -->
  <symbol id="icon-like" viewBox="0 0 24 24" fill="none" stroke="currentColor" stroke-width="2" stroke-linecap="round" stroke-linejoin="round">
    <path d="M14 9V5a3 3 0 0 0-3-3l-4 9v11h11.28a2 2 0 0 0 2-1.7l1.38-9a2 2 0 0 0-2-2.3zM7 22H4a2 2 0 0 1-2-2v-7a2 2 0 0 1 2-2h3"></path>
  </symbol>

  <!-- Comment Icon -->
  <symbol id="icon-comment" viewBox="0 0 24 24" fill="none" stroke="currentColor" stroke-width="2" stroke-linecap="round" stroke-linejoin="round">
    <path d="M21 11.5a8.38 8.38 0 0 1-.9 3.8 8.5 8.5 0 1 1-7.6-11.4 8.5 8.5 0 0 1 8.5 7.6z"></path>
  </symbol>

  <!-- Share Icon -->
  <symbol id="icon-share" viewBox="0 0 24 24" fill="none" stroke="currentColor" stroke-width="2" stroke-linecap="round" stroke-linejoin="round">
    <path d="M4 12v8a2 2 0 0 0 2 2h12a2 2 0 0 0 2-2v-8"></path>
    <polyline points="16 6 12 2 8 6"></polyline>
    <line x1="12" y1="2" x2="12" y2="15"></line>
  </symbol>

  <!-- Camera / Create Story Icon -->
  <symbol id="icon-camera" viewBox="0 0 24 24" fill="none" stroke="currentColor" stroke-width="2" stroke-linecap="round" stroke-linejoin="round">
    <path d="M23 19a2 2 0 0 1-2 2H3a2 2 0 0 1-2-2V8a2 2 0 0 1 2-2h4l2-3h6l2 3h4a2 2 0 0 1 2 2z"></path>
    <circle cx="12" cy="13" r="4"></circle>
  </symbol>

  <!-- Video Icon -->
  <symbol id="icon-video" viewBox="0 0 24 24" fill="none" stroke="currentColor" stroke-width="2" stroke-linecap="round" stroke-linejoin="round">
    <polygon points="23 7 16 12 23 17 23 7"></polygon>
    <rect x="1" y="5" width="15" height="14" rx="2" ry="2"></rect>
  </symbol>

  <!-- More (Horizontal dots) -->
  <symbol id="icon-more" viewBox="0 0 24 24" fill="none" stroke="currentColor" stroke-width="2" stroke-linecap="round" stroke-linejoin="round">
    <circle cx="12" cy="12" r="1"></circle>
    <circle cx="19" cy="12" r="1"></circle>
    <circle cx="5" cy="12" r="1"></circle>
  </symbol>

  <!-- Settings Icon -->
  <symbol id="icon-settings" viewBox="0 0 24 24" fill="none" stroke="currentColor" stroke-width="2" stroke-linecap="round" stroke-linejoin="round">
    <circle cx="12" cy="12" r="3"></circle>
    <path d="M19.4 15a1.65 1.65 0 0 0 .33 1.82l.06.06a2 2 0 0 1 0 2.83 2 2 0 0 1-2.83 0l-.06-.06a1.65 1.65 0 0 0-1.82-.33 1.65 1.65 0 0 0-1 1.51V21a2 2 0 0 1-2 2 2 2 0 0 1-2-2v-.09A1.65 1.65 0 0 0 9 19.4a1.65 1.65 0 0 0-1.82.33l-.06.06a2 2 0 0 1-2.83 0 2 2 0 0 1 0-2.83l.06-.06a1.65 1.65 0 0 0 .33-1.82 1.65 1.65 0 0 0-1.51-1H3a2 2 0 0 1-2-2 2 2 0 0 1 2-2h.09A1.65 1.65 0 0 0 4.6 9a1.65 1.65 0 0 0-.33-1.82l-.06-.06a2 2 0 0 1 0-2.83 2 2 0 0 1 2.83 0l.06.06a1.65 1.65 0 0 0 1.82.33H9a1.65 1.65 0 0 0 1-1.51V3a2 2 0 0 1 2-2 2 2 0 0 1 2 2v.09a1.65 1.65 0 0 0 1 1.51 1.65 1.65 0 0 0 1.82-.33l.06-.06a2 2 0 0 1 2.83 0 2 2 0 0 1 0 2.83l-.06.06a1.65 1.65 0 0 0-.33 1.82V9a1.65 1.65 0 0 0 1.51 1H21a2 2 0 0 1 2 2 2 2 0 0 1-2 2h-.09a1.65 1.65 0 0 0-1.51 1z"></path>
  </symbol>

  <!-- User / Profile Icon -->
  <symbol id="icon-user" viewBox="0 0 24 24" fill="none" stroke="currentColor" stroke-width="2" stroke-linecap="round" stroke-linejoin="round">
    <path d="M20 21v-2a4 4 0 0 0-4-4H8a4 4 0 0 0-4 4v2"></path>
    <circle cx="12" cy="7" r="4"></circle>
  </symbol>

  <!-- Plus / Add Icon -->
  <symbol id="icon-plus" viewBox="0 0 24 24" fill="none" stroke="currentColor" stroke-width="2" stroke-linecap="round" stroke-linejoin="round">
    <line x1="12" y1="5" x2="12" y2="19"></line>
    <line x1="5" y1="12" x2="19" y2="12"></line>
  </symbol>

  <!-- Logout Icon -->
  <symbol id="icon-logout" viewBox="0 0 24 24" fill="none" stroke="currentColor" stroke-width="2" stroke-linecap="round" stroke-linejoin="round">
    <path d="M9 21H5a2 2 0 0 1-2-2V5a2 2 0 0 1 2-2h4"></path>
    <polyline points="16 17 21 12 16 7"></polyline>
    <line x1="21" y1="12" x2="9" y2="12"></line>
  </symbol>

  <!-- Chevron Right (for Arabic navigation, often points left) -->
  <symbol id="icon-chevron-right" viewBox="0 0 24 24" fill="none" stroke="currentColor" stroke-width="2" stroke-linecap="round" stroke-linejoin="round">
    <polyline points="9 18 15 12 9 6"></polyline>
  </symbol>

  <!-- Chevron Left -->
  <symbol id="icon-chevron-left" viewBox="0 0 24 24" fill="none" stroke="currentColor" stroke-width="2" stroke-linecap="round" stroke-linejoin="round">
    <polyline points="15 18 9 12 15 6"></polyline>
  </symbol>

  <!-- Verified Badge -->
  <symbol id="icon-verified" viewBox="0 0 24 24" fill="currentColor">
    <path d="M12 2C6.48 2 2 6.48 2 12s4.48 10 10 10 10-4.48 10-10S17.52 2 12 2zm-2 15l-5-5 1.41-1.41L10 14.17l7.59-7.59L19 8l-9 9z"></path>
  </symbol>

</svg>